# xmcd CD database file
#
# Track frame offsets:
#	150
#	21324
#	30987
#	46130
#	66028
#	84123
#	102213
#	118471
#	133424
#	151632
#	172106
#	196816
#	222765
#	242707
#	262290
#	282488
#	297843
#
# Disc length: 4272 seconds
#
# Revision: 0
# Processed by: cddbd v1.5.2PL0 Copyright (c) Steve Scherf et al.
# Submitted via: CDex 1.51
#
DISCID=f710ae11
DTITLE=Caribbean Hits - Cabarete
DYEAR=2001
DGENRE=Merengue
TTITLE0=Raulin Rodriguez - Arrancame la vida
TTITLE1=Azul Azul - La Bomba
TTITLE2=Zacarias Ferreira - Morenita Buena
TTITLE3=Tono Rosario - Beso a beso
TTITLE4=Frank Reyes - Tu eres ajena
TTITLE5=Andy Pena - El burro
TTITLE6=Jose Manuel - Con una pinta asi
TTITLE7=Juan Luis Guerra 440 - Mi pc
TTITLE8=Kiko Rodriguez - Dulce mujer de mi vida
TTITLE9=Ferando Villalona - Solo tu
TTITLE10=Raulin Rodriguez - Esperame
TTITLE11=Soca Boys - Follow the leader
TTITLE12=Luis Miguel - No te puedo perdornar
TTITLE13=Rikarena - Cuanto amor se dana
TTITLE14=Zacarias Ferreira - El triste
TTITLE15=Tono Rosario - Sueltame
TTITLE16=Alex Bueno - Que Vuelva
EXTD=YEAR: 2001
EXTT0=
EXTT1=
EXTT2=
EXTT3=
EXTT4=
EXTT5=
EXTT6=
EXTT7=
EXTT8=
EXTT9=
EXTT10=
EXTT11=
EXTT12=
EXTT13=
EXTT14=
EXTT15=
EXTT16=
PLAYORDER=
